:SAMPLES-PER-SECOND 30
:FULLY-SPECIFIED
:DEGREES
82
root  1.45421 39.361 -27.8351 -1.88802 -68.3285 -2.66234
RightUpLeg  -11.8379 -3.69882 -7.54348
RightLeg  63.6382 -1.74511 -4.37459
RightFoot  10.1905 -0.685352 3.97679
RightToes  2.91037e-010 0 -3.6325e-017
Spine  2.98212 0.0707602 1.43464
Spine1  11.3746 0.84209 -3.24742
HEad  -0.277377 10.9811 -6.2315
LeftShoulder1  8.5305 -11.7592 -48.7852
LeftArm  -7.22357 12.0224 -27.2325
LeftForeArm  24.1774 -15.3786 -4.84268
LeftHand  -0.244104 0.0205437 5.32207
RightShoulder  6.59864 9.87785 42.9671
RightArm  -1.50102 -18.7406 31.6343
RightForeArm  14.9333 7.20166 7.68812
RightHand  -0.91749 1.4694 -15.6257
LeftUpLeg  -6.81163 5.34731 -11.3199
LeftLeg  13.0023 19.1343 0.109251
LeftFoot  -9.02785 -0.240644 14.5137
LeftToes  -2.38291e-010 7.29328e-011 -2.49822e-011
83
root  0.289458 39.6299 -27.4095 0.343765 -63.7369 -5.06854
RightUpLeg  -15.9417 -2.05227 -6.47773
RightLeg  61.0709 -3.24756 -6.86981
RightFoot  7.54025 -0.0567247 0.65469
RightToes  2.91037e-010 0 -3.6325e-017
Spine  3.98371 -0.699347 1.79405
Spine1  10.5213 -0.328448 -2.0502
HEad  -0.318849 9.80172 -5.61371
LeftShoulder1  8.53769 -11.7794 -48.7621
LeftArm  -4.8374 10.5199 -28.8246
LeftForeArm  23.0705 -19.8418 -4.0567
LeftHand  -0.244104 0.0205437 5.32207
RightShoulder  6.19649 9.38638 41.8198
RightArm  3.47286 -22.0402 31.5936
RightForeArm  10.7815 11.8324 7.87273
RightHand  -0.882547 1.4164 -15.1514
LeftUpLeg  -3.34514 2.32086 -10.0957
LeftLeg  11.0158 17.6785 -0.935857
LeftFoot  -9.78195 -0.132212 13.9999
LeftToes  -2.38291e-010 7.29328e-011 -2.49822e-011
84
root  -0.880717 39.8634 -26.9499 2.00114 -59.7003 -7.00015
RightUpLeg  -19.0124 -0.607938 -5.4656
RightLeg  55.4639 -4.25988 -7.05493
RightFoot  5.13379 0.168005 -0.877251
RightToes  2.91037e-010 0 -3.6325e-017
Spine  5.11118 -1.24113 2.44157
Spine1  9.50884 -1.15912 -0.959497
HEad  -0.677415 8.64253 -4.67609
LeftShoulder1  8.57182 -11.8274 -48.8041
LeftArm  -3.24005 9.45351 -30.0389
LeftForeArm  23.8451 -24.7999 -3.96354
LeftHand  -0.244104 0.0205437 5.32207
RightShoulder  5.97797 9.19629 40.8819
RightArm  8.69732 -24.8711 31.5413
RightForeArm  4.49161 15.7292 7.09725
RightHand  -0.847914 1.26081 -14.8975
LeftUpLeg  0.0814508 1.18369 -8.66803
LeftLeg  8.99442 14.8349 -1.92097
LeftFoot  -10.2528 -0.0715176 14.0015
LeftToes  -2.38291e-010 7.29328e-011 -2.49822e-011
85
root  -2.06981 39.9786 -26.4568 2.7123 -56.0642 -8.07658
RightUpLeg  -20.7134 -0.226465 -4.82744
RightLeg  46.9412 -5.01644 -6.04905
RightFoot  3.08338 -0.0620709 0.665828
RightToes  2.91037e-010 0 -3.6325e-017
Spine  5.96967 -1.69349 2.87329
Spine1  8.98703 -1.82279 -0.228972
HEad  -1.62816 7.51244 -3.82611
LeftShoulder1  8.74052 -12.0022 -49.2046
LeftArm  -2.56686 8.44655 -30.2873
LeftForeArm  26.9063 -29.6906 -4.96708
LeftHand  -0.244104 0.0205437 5.32207
RightShoulder  5.92276 9.2037 40.4448
RightArm  11.0957 -26.2437 31.1519
RightForeArm  1.90681 17.2669 6.62364
RightHand  -0.865141 1.28216 -15.1476
LeftUpLeg  2.90604 1.22883 -7.46523
LeftLeg  8.40384 11.4091 -2.09575
LeftFoot  -11.2626 0.0580039 14.2062
LeftToes  -2.38291e-010 7.29328e-011 -2.49822e-011
86
root  -3.34188 39.9053 -25.9162 2.5867 -53.2115 -8.19531
RightUpLeg  -21.2656 -1.21263 -4.28807
RightLeg  36.1148 -4.8952 -4.11719
RightFoot  2.09395 -0.319135 2.81512
RightToes  2.91037e-010 0 -3.6325e-017
Spine  6.07804 -1.84461 2.73674
Spine1  9.16626 -2.11562 0.0755611
HEad  -2.89666 6.23392 -3.07414
LeftShoulder1  9.00316 -12.3325 -49.6292
LeftArm  -1.37268 7.40387 -30.1724
LeftForeArm  30.0952 -34.073 -5.84605
LeftHand  -0.244104 0.0205437 5.32207
RightShoulder  5.90472 9.21048 40.2874
RightArm  10.6521 -26.1441 30.6628
RightForeArm  3.60349 16.4972 6.87252
RightHand  -0.855538 1.21627 -15.1233
LeftUpLeg  4.92286 1.84038 -6.56497
LeftLeg  9.70549 8.22823 -1.81294
LeftFoot  -13.414 0.335864 14.0341
LeftToes  -2.38291e-010 7.29328e-011 -2.49822e-011
87
root  -4.67014 39.8015 -25.288 2.76073 -51.4559 -8.28369
RightUpLeg  -21.179 -3.87642 -2.78442
RightLeg  23.2982 -2.51403 -1.50632
RightFoot  1.73742 -0.459288 4.10658
RightToes  2.91037e-010 0 -3.6325e-017
Spine  5.39094 -1.63131 2.83315
Spine1  9.69448 -1.95946 0.441232
HEad  -4.01384 4.97911 -2.30985
LeftShoulder1  9.18737 -12.64 -49.6816
LeftArm  -0.684263 6.63863 -30.2386
LeftForeArm  33.3686 -37.7187 -6.61635
LeftHand  -0.244104 0.0205437 5.32207
RightShoulder  5.94086 9.26675 40.3612
RightArm  8.14823 -25.1462 30.005
RightForeArm  7.38571 14.2093 7.55834
RightHand  -0.801867 0.994942 -14.6666
LeftUpLeg  7.09427 2.6486 -5.43462
LeftLeg  10.2168 5.54867 -2.03513
LeftFoot  -15.296 0.569502 13.7369
LeftToes  -2.38291e-010 7.29328e-011 -2.49822e-011
88
root  -5.99923 39.6948 -24.5972 3.11879 -50.3183 -8.30237
RightUpLeg  -20.4321 -6.51744 -1.29817
RightLeg  9.21165 0.0807259 1.40048
RightFoot  1.39165 -0.690718 6.26802
RightToes  2.91037e-010 0 -3.6325e-017
Spine  4.56318 -1.34422 3.05401
Spine1  10.0794 -1.76502 1.10309
HEad  -4.93689 4.02499 -1.68356
LeftShoulder1  9.23731 -12.7741 -49.541
LeftArm  -0.60757 6.26485 -30.295
LeftForeArm  35.8568 -40.5389 -7.27104
LeftHand  -0.244104 0.0205437 5.32207
RightShoulder  6.09033 9.44495 40.8454
RightArm  4.62547 -23.5507 28.8853
RightForeArm  11.0394 11.1538 8.19474
RightHand  -0.79151 0.94931 -14.5795
LeftUpLeg  9.55325 3.37803 -4.28094
LeftLeg  9.65853 3.43697 -2.51171
LeftFoot  -16.7635 0.740543 13.4393
LeftToes  -2.38291e-010 7.29328e-011 -2.49822e-011
89
root  -7.3839 39.4114 -23.855 2.57527 -49.2012 -7.53465
RightUpLeg  -19.2473 -4.2555 -2.51485
RightLeg  -2.25006 -3.5637 4.64937
RightFoot  0.693041 -0.944094 9.00233
RightToes  2.91037e-010 0 -3.6325e-017
Spine  4.21324 -1.26164 2.4869
Spine1  10.077 -1.81713 1.80245
HEad  -6.03554 3.34949 -1.4498
LeftShoulder1  9.25156 -12.7979 -49.545
LeftArm  -0.981852 5.97683 -30.0575
LeftForeArm  36.9692 -42.2189 -7.71255
LeftHand  -0.244104 0.0205437 5.32207
RightShoulder  6.30346 9.65857 41.6493
RightArm  1.21346 -21.3597 27.48
RightForeArm  13.1212 8.01199 8.28171
RightHand  -0.875615 1.32163 -15.2344
LeftUpLeg  11.8952 4.09549 -3.66701
LeftLeg  10.2346 1.65485 -2.66388
LeftFoot  -19.0938 0.988885 12.8516
LeftToes  -2.38291e-010 7.29328e-011 -2.49822e-011
90
root  -8.79435 39.0131 -23.069 1.60863 -48.0846 -6.66933
RightUpLeg  -19.6428 -4.68871 -2.22694
RightLeg  -4.86754 -5.41343 5.71826
RightFoot  -0.704189 -0.940053 9.9903
RightToes  2.91037e-010 0 -3.6325e-017
Spine  4.37075 -1.32448 1.79703
Spine1  10.018 -2.03811 2.4982
HEad  -7.49947 2.86013 -1.63176
LeftShoulder1  9.28832 -12.8376 -49.6212
LeftArm  -1.76692 5.57345 -29.7253
LeftForeArm  36.7701 -42.4659 -7.80404
LeftHand  -0.244104 0.0205437 5.32207
RightShoulder  6.48927 9.82678 42.3861
RightArm  -1.44465 -18.6885 26.331
RightForeArm  13.0202 5.41773 7.74585
RightHand  -1.0188 1.97454 -16.1662
LeftUpLeg  14.2194 4.85756 -3.1909
LeftLeg  11.7937 -0.183263 -2.36865
LeftFoot  -21.4827 1.19584 11.9602
LeftToes  -2.38291e-010 7.29328e-011 -2.49822e-011
91
root  -10.181 38.6875 -22.2448 1.51363 -46.9179 -6.72122
RightUpLeg  -21.046 -4.32857 -1.25555
RightLeg  -0.416335 -8.09903 5.15592
RightFoot  -0.608501 -0.825713 8.7436
RightToes  2.91037e-010 0 -3.6325e-017
Spine  4.4536 -1.47719 2.09629
Spine1  10.2745 -2.43602 3.17246
HEad  -8.96324 2.57834 -2.05641
LeftShoulder1  9.31047 -12.8814 -49.6066
LeftArm  -2.69103 5.22994 -29.4948
LeftForeArm  35.6498 -41.2112 -7.48913
LeftHand  -0.244104 0.0205437 5.32207
RightShoulder  6.60741 9.9343 42.8403
RightArm  -3.74043 -15.9159 25.6105
RightForeArm  11.4236 3.71309 7.13191
RightHand  -1.16122 2.55988 -17.0691
LeftUpLeg  16.2895 5.25401 -2.30299
LeftLeg  13.3569 -1.9478 -1.61376
LeftFoot  -22.7242 1.21557 10.7958
LeftToes  -2.38291e-010 7.29328e-011 -2.49822e-011
92
root  -11.6621 38.4013 -21.2966 2.13202 -45.414 -7.52148
RightUpLeg  -22.6579 -5.82925 0.970372
RightLeg  6.91264 -7.55761 3.47547
RightFoot  1.7719 -0.701646 6.2685
RightToes  2.91037e-010 0 -3.6325e-017
Spine  3.90966 -1.85394 3.37214
Spine1  10.4996 -2.93227 3.41998
HEad  -9.82021 2.36598 -2.539
LeftShoulder1  9.29749 -12.8512 -49.629
LeftArm  -3.08654 5.24779 -29.2759
LeftForeArm  33.9752 -38.5041 -6.80344
LeftHand  -0.244104 0.0205437 5.32207
RightShoulder  6.66459 9.95217 43.1727
RightArm  -5.31764 -13.5881 25.0665
RightForeArm  9.05998 3.16291 6.85881
RightHand  -1.25164 2.83261 -17.7807
LeftUpLeg  17.8136 4.57676 -1.03185
LeftLeg  15.888 -2.90245 -0.854761
LeftFoot  -23.5684 1.0621 8.61142
LeftToes  -2.38291e-010 7.29328e-011 -2.49822e-011
93
root  -13.2042 38.2493 -20.249 3.16969 -44.165 -9.02744
RightUpLeg  -23.969 -9.83239 5.03239
RightLeg  13.5025 -2.61289 1.43322
RightFoot  4.95361 -0.362935 2.77341
RightToes  2.91037e-010 0 -3.6325e-017
Spine  3.22635 -2.05966 5.98463
Spine1  10.5638 -3.00191 3.05614
HEad  -9.87867 1.95497 -2.87144
LeftShoulder1  9.26588 -12.7577 -49.7433
LeftArm  -2.63646 5.9396 -29.0798
LeftForeArm  32.0104 -34.7725 -5.91639
LeftHand  -0.244104 0.0205437 5.32207
RightShoulder  6.70742 9.92244 43.5674
RightArm  -5.9179 -12.0532 24.6142
RightForeArm  7.11552 3.7271 6.91377
RightHand  -1.23871 2.74311 -17.7805
LeftUpLeg  18.6561 3.30565 1.01154
LeftLeg  19.728 -3.31081 -0.959805
LeftFoot  -22.7066 0.583977 4.46089
LeftToes  -2.38291e-010 7.29328e-011 -2.49822e-011
94
root  -14.7527 38.2047 -19.1981 3.98184 -43.6594 -10.5026
RightUpLeg  -24.9336 -10.263 7.88109
RightLeg  19.829 -0.70284 -0.380653
RightFoot  5.41906 0.198332 -1.1619
RightToes  2.91037e-010 0 -3.6325e-017
Spine  3.02882 -1.87269 9.1386
Spine1  10.4209 -2.33365 2.06644
HEad  -9.62591 1.36232 -2.84409
LeftShoulder1  9.22438 -12.6957 -49.71
LeftArm  -1.8243 7.52596 -28.9838
LeftForeArm  29.9093 -31.0461 -5.11643
LeftHand  -0.244104 0.0205437 5.32207
RightShoulder  6.78373 9.98972 43.8585
RightArm  -6.15327 -10.9789 24.7324
RightForeArm  6.59206 4.81864 7.0167
RightHand  -1.14271 2.46695 -16.9925
LeftUpLeg  17.3771 3.05387 3.81041
LeftLeg  27.2367 -4.94607 -2.46124
LeftFoot  -17.2722 0.0803954 -1.0185
LeftToes  -2.38291e-010 7.29328e-011 -2.49822e-011
